<svg id="a" xmlns="http://www.w3.org/2000/svg" viewBox="0 0 2000 2000">
  <defs>
    <style>
      .b {
        fill: #f7df1e;
      }
    </style>
  </defs>
  <rect class="b" x="250" y="250" width="1500" height="1500" />
  <path
    d="M1257.62,1421.88c30.21,49.33,69.52,85.6,139.05,85.6,58.4,0,95.71-29.19,95.71-69.52,0-48.33-38.33-65.45-102.62-93.57l-35.24-15.12c-101.71-43.33-169.29-97.62-169.29-212.38,0-105.71,80.55-186.19,206.43-186.19,89.62,0,154.05,31.19,200.48,112.86l-109.76,70.48c-24.17-43.33-50.24-60.4-90.71-60.4s-67.45,26.19-67.45,60.4c0,42.29,26.19,59.4,86.67,85.6l35.24,15.1c119.76,51.36,187.38,103.71,187.38,221.43,0,126.9-99.69,196.43-233.57,196.43s-215.48-62.38-256.86-144.14l114.55-66.55Zm-497.93,12.21c22.14,39.29,42.29,72.5,90.71,72.5s75.52-18.12,75.52-88.57v-479.29h140.95v481.19c0,145.95-85.57,212.38-210.48,212.38-112.86,0-178.21-58.4-211.45-128.75l114.74-69.46Z" />
</svg>