<svg id="a" xmlns="http://www.w3.org/2000/svg" viewBox="0 0 2000 2000">
  <defs>
    <style>
      .f {
        fill: #fff;
      }

      .g {
        fill: #3b73b9;
      }
    </style>
  </defs>
  <g id="b">
    <g id="c">
      <path id="d" class="f"
        d="M976.94,1722.5c414.31,0,750.06-335.76,750.06-749.94S1391.24,222.5,976.94,222.5,227,558.38,227,972.56s335.76,749.94,749.94,749.94" />
      <path id="e" class="g"
        d="M1145.24,777.22c0-85.29,57.73-168,89.23-152.42,35.91,18-26.91,98.33-89.23,152.42m-392.6,31.07c0-68.57,67.65-198.86,108.98-185.08,48.86,16.29-40.47,147.7-108.98,185.08m-68.6,490.41c-31.1,1.41-51.92-18.49-51.92-51.7,0-89.23,123.83-174.49,217.35-220.26-16.59,124.59-58.68,267.15-165.43,271.96m571.29-290.79c-70.62,0-124.59,51.95-124.59,114.24,0,51.95,31.22,93.49,72.64,93.49,14.66,0,29.17-8.36,29.17-26.91,0-27.15-35.82-33.67-33.12-74.05,1.81-26.63,26.91-44.45,51.83-44.45,49.81,0,73.1,48.28,73.1,98.08-2.02,76.93-58.65,130.35-125.02,130.35-87.31,0-143.39-83.02-143.39-172.38,0-133.04,87.31-184.96,133.04-197.36,.43,0,119.45,21.15,115.74-31.32-1.71-23.08-36.03-31.96-60.83-32.91-27.58-1.07-55.44,8.85-55.44,8.85-14.45-7.35-24.49-21.7-30.7-38.23,85.19-64.47,145.44-126.73,145.44-197.39,0-37.38-24.98-70.62-72.77-70.62-85.19,0-149.6,108.03-149.6,205.68,0,16.56,0,33.24,4.29,47.76-54.06,39.43-94.26,64.01-166.9,107.63,0-9.09,1.9-32.57,8.02-62.94,24.89-27.03,59.08-67.53,59.08-98.72,0-14.51-8.23-27.03-25.01-27.03-41.48,0-72.58,62.39-80.91,106.01-18.7,22.96-56.11,52.04-87.34,52.04-24.89,0-33.24-22.87-35.36-31.22,78.98-27.03,176.63-135.06,176.63-232.71,0-20.72-8.33-66.49-70.62-66.49-93.49,0-172.35,139.26-172.35,247.16-33.34,0-45.73-35.27-45.73-62.3s10.38-53.97,10.38-62.33-4.16-18.67-16.68-18.67c-31.1,0-49.81,41.54-49.81,89.33,2.14,66.49,45.73,108.15,103.87,112.22,8.33,39.52,43.59,76.93,87.18,76.93,27.06,0,60.28-8.33,83.14-29.05-2.02,14.51-4.04,27.03-6.18,39.43-91.47,47.88-157.96,81.09-218.2,135.09-47.66,43.68-74.69,101.82-74.69,147.46,0,62.42,39.43,120.55,120.43,120.55,95.51,0,168.31-76.84,203.66-182.85,16.56-49.81,23.2-122.36,27.46-188.94,95.45-54.09,140.76-85.26,190.65-120.64,6.21,10.38,12.49,18.67,20.72,24.89-43.59,22.87-147.46,87.31-147.46,238.93,0,108.03,72.64,228.58,216.09,228.58,118.41,0,199.41-97.68,199.41-191.2-.03-85.1-47.82-163.99-139.29-163.99m357.21,178.47c-.31,.64-1.47,1.5-3.83,.73-1.84-.64-2.23-1.5-2.23-2.69,.09-1.16,25.1-75.12,24.89-159.86-.21-91.59-37.38-147.7-85.04-147.7-29.17,0-49.93,20.85-49.93,52.07,0,56.08,68.51,60.28,68.51,182.82,0,49.81-10.38,97.59-26.91,149.51-76.96,259.65-322.1,380.2-560.91,380.2-110.17,0-188.42-22.65-211.68-33.09-.95-.55-1.84-2.36-1.07-4.19,.52-1.38,2.14-2.45,3.09-2.02,9.43,3.64,76.62,24.8,159.77,24.8,91.38,0,145.44-37.38,145.44-83.14,0-29.05-22.87-51.92-51.92-51.92-56.11,0-60.37,70.62-180.83,70.62-51.92,0-97.65-10.38-151.62-27.06-257.69-78.92-380.36-321.92-380.27-562.9,.09-117.43,33.03-210.95,33.55-211.81,.43-.61,1.9-1.29,3.7-.61,1.84,.61,2.23,2.11,2.14,2.66-2.97,9.73-24.8,76.74-24.8,159.89,0,91.47,37.38,145.44,85.16,145.44,26.94,0,49.81-20.72,49.81-49.81,0-56.17-68.6-62.39-68.6-182.91,0-51.95,10.47-97.68,27.03-151.65,78.98-257.63,322.1-378.37,561.03-380.23,111.03-.86,208.16,32.39,211.9,35.36,.64,.55,1.29,1.96,.64,3.64-.89,2.02-2.17,2.23-2.79,2.11-1.16-.09-64.35-26.51-159.98-26.51-89.33-.09-145.44,37.32-145.44,85.16,0,26.94,20.85,49.81,51.92,49.81,56.11,0,60.28-68.51,180.83-68.51,51.8,0,97.56,10.26,151.53,26.94,259.78,78.95,377.97,324.09,380.2,561,1.22,121.32-32.97,213.09-33.31,213.86M977.06,257.86c-394.74,0-714.67,319.84-714.67,714.67s319.93,714.58,714.67,714.58,714.58-319.84,714.58-714.58S1371.71,257.86,977.06,257.86m0,1464.64c-413.45,0-750.06-334.47-750.06-749.94S563.61,222.5,977.06,222.5s749.94,336.49,749.94,750.06-336.61,749.94-749.94,749.94" />
    </g>
  </g>
</svg>